<?xml version="1.0" standalone="no"?><!DOCTYPE svg PUBLIC "-//W3C//DTD SVG 1.1//EN" "http://www.w3.org/Graphics/SVG/1.1/DTD/svg11.dtd"><svg class="icon" width="200px" height="200.00px" viewBox="0 0 1024 1024" version="1.1" xmlns="http://www.w3.org/2000/svg"><path fill="#f7f7f7" d="M512 960C264.576 960 64 759.36 64 512 64 264.64 264.576 64 512 64 759.424 64 960 264.64 960 512 960 759.36 759.424 960 512 960L512 960ZM512 0C229.216 0 0 229.12 0 512 0 794.88 229.216 1024 512 1024 794.784 1024 1024 794.88 1024 512 1024 229.12 794.784 0 512 0L512 0ZM721.12 483.84 540.128 302.72C527.616 290.24 507.36 290.24 494.88 302.72 482.368 315.52 482.368 335.68 494.88 348.16L626.752 480 288 480C270.304 480 256 494.4 256 512 256 529.6 270.304 544 288 544L626.752 544 494.88 675.84C482.368 688.32 482.368 708.8 494.88 721.28 507.36 733.76 527.616 733.76 540.128 721.28L721.12 540.16C728.8 532.48 731.2 521.92 729.44 512 731.2 502.08 728.8 491.52 721.12 483.84L721.12 483.84Z" /></svg>