<?xml version="1.0" standalone="no"?><!DOCTYPE svg PUBLIC "-//W3C//DTD SVG 1.1//EN" "http://www.w3.org/Graphics/SVG/1.1/DTD/svg11.dtd"><svg class="icon" width="200px" height="200.00px" viewBox="0 0 1024 1024" version="1.1" xmlns="http://www.w3.org/2000/svg"><path fill="#ffffff" d="M609.701647 230.159059h-491.52v92.16h491.52c165.767529 0 294.731294 119.687529 294.731294 276.299294 0 156.611765-119.747765 276.299294-285.515294 276.299294H47.887059c-27.648 0-46.08 18.432-46.08 46.08 0 27.587765 18.432 46.019765 46.08 46.019765h571.030588c211.847529 0 377.675294-165.767529 377.675294-368.399059S821.488941 230.098824 609.641412 230.098824zM16.865882 241.965176L278.287059 12.167529a47.525647 47.525647 0 0 1 66.921412 3.373177c17.468235 19.275294 15.962353 49.392941-3.312942 66.921412l-220.461176 192.572235L338.522353 436.284235c20.48 16.143059 23.913412 46.140235 7.830588 66.56a47.525647 47.525647 0 0 1-66.56 7.830589L19.576471 315.211294a46.923294 46.923294 0 0 1-15.420236-21.985882c-5.782588-19.335529-1.325176-38.610824 12.649412-51.260236z" /></svg>