<?xml version="1.0" standalone="no"?><!DOCTYPE svg PUBLIC "-//W3C//DTD SVG 1.1//EN" "http://www.w3.org/Graphics/SVG/1.1/DTD/svg11.dtd"><svg class="icon" width="200px" height="200.00px" viewBox="0 0 1024 1024" version="1.1" xmlns="http://www.w3.org/2000/svg"><path fill="#ffffff" d="M795.2 106.5c36.1 0 65.4 28.6 65.4 63.9v624.3l6.1-14.8L725.1 924l15.7-6.5h-512c-36 0-65.3-28.7-65.3-64v-747h631.7zM119.9 63.8V853.4c0 58.8 48.8 106.7 108.9 106.7h521.3l6.4-6.5L898 809.5l6.1-6.2V170.4c0-58.9-48.8-106.6-108.9-106.6H119.9z m588.2 618.9c-36.2 0-65.4 28.5-65.4 64v128.1c0 11.8 9.8 21.3 21.8 21.3s21.8-9.6 21.8-21.3V746.7c0-11.8 9.7-21.3 21.9-21.3h98c12 0 21.8-9.6 21.8-21.3 0-11.8-9.8-21.3-21.8-21.3h-98.1v-0.1z m34.2-426.8c12 0 21.8-9.6 21.8-21.3 0-11.8-9.8-21.3-21.8-21.3H294.1c-12 0-21.8 9.6-21.8 21.3 0 11.8 9.8 21.3 21.8 21.3h448.2z m0 128.1c12 0 21.8-9.6 21.8-21.3 0-11.8-9.8-21.3-21.8-21.3H294.1c-12 0-21.8 9.6-21.8 21.3 0 11.8 9.8 21.3 21.8 21.3h448.2z m0 149.3c12 0 21.8-9.6 21.8-21.3s-9.8-21.3-21.8-21.3H294.1c-12 0-21.8 9.6-21.8 21.3s9.8 21.3 21.8 21.3h448.2z" /></svg>