<?xml version="1.0" standalone="no"?><!DOCTYPE svg PUBLIC "-//W3C//DTD SVG 1.1//EN" "http://www.w3.org/Graphics/SVG/1.1/DTD/svg11.dtd"><svg class="icon" width="200px" height="200.00px" viewBox="0 0 1024 1024" version="1.1" xmlns="http://www.w3.org/2000/svg"><path fill="#ffffff" d="M516.708743 834.513368M955.973162 394.189827l-68.873624-15.685237 0.385786 201.091948c0.12689 40.436968-32.773428 73.411987-73.180719 73.512271l-89.358167 0.193405-27.758204 121.719202c-3.864004 16.870226-20.74344 27.463492-37.620829 23.619954L158.931221 684.492586c-14.366196-3.275603-24.040533-15.901155-24.342408-29.940916l-32.885991 0.045025c-3.031033 0-6.130627-0.234337-9.114588-0.6191 0.064468 33.42118 23.080671 63.642482 57.040111 71.345931l694.719508 158.454872c39.403428 8.978489 78.863139-15.812127 87.842651-55.194066l78.990029-346.530364C1020.16823 442.614723 995.433896 403.191852 955.973162 394.189827L955.973162 394.189827 955.973162 394.189827zM870.846366 565.756321l-0.757247-355.416755c-0.063445-40.447201-33.082466-73.299423-73.488735-73.216535L83.996554 138.646734c-40.413432 0.091074-73.299423 33.041534-73.235978 73.482595l0.820692 355.437222c0.063445 37.356816 28.200272 68.144006 64.37824 72.570829 2.973728 0.358157 721.658044-0.881067 721.658044-0.881067C838.028936 639.139655 870.908788 606.169753 870.846366 565.756321L870.846366 565.756321 870.846366 565.756321zM603.770612 598.22071l-513.480724 1.075495c-0.511653 0-1.00898-0.132006-1.521656-0.13917-16.563234-0.807389-29.906124-14.411221-29.906124-31.210839l-0.820692-355.431082c0-17.34811 14.049994-31.456433 31.371498-31.497365l513.472538-1.088798c17.320481-0.019443 31.56081 14.046924 31.56081 31.372521l0.701988 355.415732C635.210671 584.04485 621.166817 598.174662 603.770612 598.22071L603.770612 598.22071 603.770612 598.22071zM358.221126 230.087329l0 40.660048c0 9.04091-0.468674 15.368012-1.351787 18.96698 0 4.541433-0.470721 8.137331-1.362021 10.846022l131.469264 0 0 10.844999L352.79965 311.405379c-3.620457 9.04398-9.491165 18.085914-17.623379 27.107381-1.815345 2.707668-4.059456 5.423523-6.77531 8.129144-3.620457 3.620457-5.884011 6.335289-6.776334 8.131191l189.750645 0 0 10.846022-92.165096 0c46.083571 51.497884 77.69964 78.160127 94.872764 79.964216 0.883113 0.904603 1.352811 1.816369 1.352811 2.707668 0 0.911766-0.462534 1.352811-1.352811 1.352811-30.726815 0.913812-50.613748-3.598968-59.636239-13.552667 0.892323 5.423523 1.795902 11.308557 2.707668 17.623379-0.911766 5.421476-1.815345 14.455223-2.707668 27.104311-0.910743 10.838859-1.352811 17.173125-1.352811 18.977213-2.714831 29.811979-19.439748 44.25697-50.151213 43.36567-30.726815-0.912789-58.273195-9.042957-82.671884-24.391527-3.620457-2.714831-4.974291-4.53734-4.062526-5.420453 0-0.912789 2.24411-0.470721 6.768147 1.351787 20.780279 7.218402 40.660048 10.839883 59.635215 10.839883 27.996634 0.8913 42.463114-7.682983 43.37488-25.745361 0.890276-6.313799 1.795902-16.268522 2.708692-29.822213 0-4.508687 0.448208-9.484002 1.353834-14.906501 0.8913-19.85828-9.04398-29.349445-29.815049-28.460192L313.493435 426.607144c-14.458293 36.150338-24.861224 61.458747-31.16786 75.896574-10.844999 27.104311-33.881668 40.194444-69.125357 39.304168-6.328126 0-9.04398-0.463558-8.131191-1.353834-0.912789-0.910743 1.803066-2.712785 8.131191-5.421476 17.157775-7.247054 31.616068-21.240767 43.372833-42.014906 3.598968-6.311753 9.933233-20.329001 18.975167-42.020022 3.599991-8.131191 7.219425-16.261359 10.837836-24.391527l-32.527834 0c-16.262382 18.97619-39.299051 27.568892-69.119217 25.753547-1.824555 0-2.707668-0.448208-2.707668-1.362021 0-0.88209 0.883113-1.795902 2.707668-2.707668 18.064424-6.307659 38.835494-22.574135 62.342884-48.790216 8.130168-9.020444 18.975167-20.329001 32.528857-33.882692l-93.516884 0 0-10.846022 101.647051 0c7.226588-7.219425 13.553691-14.443967 18.97619-21.682835 1.804089-1.803066 3.157923-3.1569 4.068665-4.069689 0.890276-1.803066 2.24411-3.598968 4.069689-5.423523 2.707668-2.706645 5.865591-6.776334 9.484002-12.199856L206.423885 311.395146l0-10.837836 121.978099 0c2.715855-7.225565 4.069689-17.150612 4.069689-29.820166l0-40.651862L358.221126 230.085282 358.221126 230.087329zM219.976552 240.924141l28.461215 0c16.266475 26.223245 30.703279 40.21798 43.372833 42.021046 0.884137 0.905626 1.353834 1.815345 1.353834 2.707668-0.911766 0.909719-1.824555 1.351787-2.714831 1.351787-27.107381 1.825578-43.830251-4.060479-50.145074-17.61417-2.707668-2.714831-6.333242-7.226588-10.836813-13.552667C224.936517 249.52503 221.779617 244.551762 219.976552 240.924141L219.976552 240.924141zM386.682341 365.618095l-74.54274 0c-6.333242 6.327102-14.905478 15.369036-25.752524 27.106358-11.755742 11.749602-19.437701 19.87977-23.037692 24.391527l139.593292 0c15.356756 0 27.997658 1.822508 37.95238 5.421476-8.132214-7.217379-18.977213-18.063401-32.530904-32.521694C397.519154 378.280486 390.281309 370.148271 386.682341 365.618095L386.682341 365.618095zM449.025225 240.924141l28.461215 0c-2.708692 3.62762-6.336312 8.599865-10.839883 14.914688-4.53734 6.327102-7.687076 10.837836-9.491165 13.552667-7.238868 13.553691-23.949458 19.439748-50.14405 17.61417-1.822508 0-3.176342-0.442068-4.067642-1.351787 0-0.893346 0.8913-1.803066 2.715855-2.707668C417.386644 281.142122 431.851077 267.147386 449.025225 240.924141L449.025225 240.924141zM449.025225 240.924141" /></svg>