<?xml version="1.0" standalone="no"?><!DOCTYPE svg PUBLIC "-//W3C//DTD SVG 1.1//EN" "http://www.w3.org/Graphics/SVG/1.1/DTD/svg11.dtd"><svg class="icon" width="200px" height="200.00px" viewBox="0 0 1024 1024" version="1.1" xmlns="http://www.w3.org/2000/svg"><path fill="#ffffff" d="M199.606619 374.145305l194.19998 52.063773c2.387373 0.553609 4.7727 0.88516 7.161097 0.88516 12.266371 0 23.420409-8.156774 26.752294-20.587897 3.993964-14.766308-4.831029-29.972639-19.59222-33.914414L213.982024 320.53327c-14.765285-3.996011-30.026874 4.7727-33.966603 19.589151C176.020434 354.942965 184.786075 370.149295 199.606619 374.145305L199.606619 374.145305zM199.606619 651.545196l194.19998 52.05661c2.387373 0.668219 4.826935 0.99977 7.215332 0.99977 12.267395 0 23.421432-8.15575 26.754341-20.585851 3.992941-14.766308-4.832052-30.026874-19.59222-33.914414l-194.201004-52.172243c-14.765285-3.937682-30.026874 4.832052-33.966603 19.647479C176.020434 632.342856 184.786075 647.546116 199.606619 651.545196L199.606619 651.545196zM199.606619 512.792039l194.19998 52.055586c2.387373 0.669242 4.826935 0.944512 7.215332 0.944512 12.267395 0 23.421432-8.100492 26.754341-20.530592 3.992941-14.821567-4.832052-29.972639-19.59222-33.967626l-194.201004-52.063773c-14.765285-3.937682-30.026874 4.831029-33.966603 19.593244C176.020434 493.587652 184.786075 508.84924 199.606619 512.792039L199.606619 512.792039zM596.113211 545.260521c3.327792 12.4301 14.59644 20.530592 26.752294 20.530592 2.440585 0 4.828982-0.275269 7.217379-0.944512l194.19998-52.055586c14.81645-3.88754 23.586185-19.204387 19.589151-33.915437-3.939729-14.81645-19.149129-23.585161-33.911344-19.647479l-194.254216 52.063773C600.940147 515.287883 592.116177 530.438954 596.113211 545.260521L596.113211 545.260521zM643.009288 836.866972l-103.341646 27.693736L539.667641 256.203126l360.647897-96.625688 0 368.531448c3.168156-0.057305 6.161327-0.445138 9.383718-0.445138 16.150842 0 31.357172 1.499144 46.067198 3.663436L955.766454 123.390261c0-8.604982-3.941775-16.764825-10.878768-21.980617-6.829546-5.272074-15.763009-7.100722-24.033369-4.7727L511.914554 206.198246 102.975814 96.581686c-8.209986-2.273786-17.204847-0.499373-24.029276 4.827959-6.881734 5.216815-10.878768 13.375635-10.878768 21.980617l0 665.742547c0 12.545734 8.378831 23.586185 20.535709 26.804483l416.095743 111.505583c2.388397 0.666172 4.831029 0.944512 7.215332 0.944512 2.388397 0 4.831029-0.277316 7.161097-0.944512l134.37136-35.96512C648.395972 873.661993 644.898311 855.403141 643.009288 836.866972L643.009288 836.866972zM484.166583 864.559685 123.567805 767.876692 123.567805 159.523203l360.598778 96.680946L484.166583 864.559685 484.166583 864.559685zM622.865505 427.094238c2.440585 0 4.828982-0.331551 7.217379-0.940418l194.19998-52.063773c14.81645-3.941775 23.586185-19.148106 19.532869-33.968649-3.937682-14.81645-19.147082-23.64042-33.909297-19.647479L615.650173 372.537691c-14.710027 3.996011-23.533996 19.203364-19.536962 34.023908C599.384721 418.938488 610.653369 427.094238 622.865505 427.094238L622.865505 427.094238zM955.765431 674.02007c0-2.718925-0.99977-5.545296-3.107781-7.601118-2.052752-2.109034-4.886287-3.220345-7.605212-3.220345l-16.318664 0c-6.771217 0-14.042831-5.273097-16.041348-11.707646l-8.490372-20.703531c-3.218298-5.995551-1.942235-14.873756 2.88777-19.59222l11.707646-11.658528c1.889023-1.9934 3.107781-4.716418 3.107781-7.653307 0-3.000334-1.163499-5.718235-3.107781-7.607258l-19.812231-19.647479c-1.942235-1.943258-4.550643-3.163039-7.605212-3.163039-2.937912 0-5.606695 1.164522-7.544837 3.163039l-11.713786 11.598152c-4.826935 4.776793-13.650905 6.16235-19.59222 2.833535l-20.701484-8.435113c-6.435573-1.998517-11.822257-9.15859-11.822257-16.040325l0-16.317641c0-2.830465-1.055029-5.551436-3.164063-7.607258-2.052752-2.106987-4.826935-3.163039-7.544837-3.163039l-27.918863 0c-2.77623 0-5.550413 1.056052-7.605212 3.163039-2.052752 2.055822-3.218298 4.776793-3.218298 7.607258l0 16.372899c0 6.883781-5.272074 14.041808-11.822257 16.040325l-20.537755 8.435113c-5.936199 3.388167-14.81645 1.943258-19.532869-2.827395l-11.768021-11.602246c-1.889023-1.943258-4.550643-3.163039-7.54893-3.163039-2.939959 0-5.661953 1.162476-7.66047 3.163039l-19.702738 19.647479c-1.88493 1.886977-3.164063 4.606925-3.164063 7.603165 0 2.938935 1.222851 5.661953 3.164063 7.662517l11.711739 11.653411c4.7727 4.714372 6.051833 13.539364 2.88777 19.591197l-8.494465 20.703531c-2.054799 6.434549-9.213849 11.821233-15.985066 11.821233l-16.480346-0.109494c-2.721994 0-5.439896 1.111311-7.54893 3.218298-2.111081 2.055822-3.219321 4.882194-3.219321 7.603165l0 27.91784c0 2.775206 1.109264 5.494131 3.219321 7.603165 2.109034 2.163269 4.826935 3.218298 7.54893 3.218298l16.480346 0c6.771217 0 13.930267 5.219885 15.928784 11.770068l8.549723 20.591991c3.218298 6.046716 1.88493 14.929014-2.88777 19.647479l-11.711739 11.598152c-1.88493 1.998517-3.164063 4.714372-3.164063 7.6574 0 3.000334 1.222851 5.661953 3.164063 7.662517l19.702738 19.647479c1.998517 1.88186 4.720511 3.107781 7.66047 3.107781 2.998287 0 5.716188-1.168616 7.54893-3.107781l11.707646-11.714809c4.776793-4.716418 13.600763-6.05081 19.59222-2.826372l20.648272 8.490372c6.54916 1.99647 11.822257 9.213849 11.822257 15.985066l0 16.367783c0 2.88777 1.165546 5.606695 3.218298 7.714705 2.054799 2.054799 4.833075 3.110851 7.607258 3.110851l27.916816 0c2.717901 0 5.492084-1.056052 7.544837-3.110851 2.114151-2.109034 3.168156-4.826935 3.168156-7.714705l0-16.367783c0-6.771217 5.382591-13.988596 11.818163-15.985066l20.701484-8.490372c5.995551-3.279696 14.766308-1.89107 19.59222 2.826372l11.658528 11.714809c1.998517 1.88186 4.606925 3.216251 7.601118 3.216251 2.944052 0 5.661953-1.164522 7.605212-3.216251l19.812231-19.647479c1.889023-2.000564 3.109828-4.663206 3.109828-7.662517 0-2.943029-1.165546-5.658883-3.109828-7.6574l-11.707646-11.598152c-4.831029-4.773723-6.049786-13.600763-2.88777-19.647479l8.494465-20.591991c1.994424-6.550183 9.266038-11.770068 16.041348-11.770068l16.370853 0c2.717901 0 5.550413-1.054005 7.605212-3.218298 2.109034-2.109034 3.107781-4.827959 3.107781-7.603165l0-27.975145L955.765431 674.02314 955.765431 674.02007zM857.081874 687.953408c0 34.133402-27.583219 61.660338-61.662385 61.660338s-61.718667-27.525913-61.718667-61.660338c0-34.081213 27.583219-61.718667 61.662385-61.718667S857.081874 653.873218 857.081874 687.953408" /></svg>