<?xml version="1.0" standalone="no"?><!DOCTYPE svg PUBLIC "-//W3C//DTD SVG 1.1//EN" "http://www.w3.org/Graphics/SVG/1.1/DTD/svg11.dtd"><svg class="icon" width="200px" height="160.00px" viewBox="0 0 1280 1024" version="1.1" xmlns="http://www.w3.org/2000/svg"><path fill="#ffffff" d="M319.45 867.2c89.6 89.6 233.6 89.6 316.8 0l12.8-12.8L332.25 537.6l-12.8 12.8C233.05 633.6 233.05 777.6 319.45 867.2L319.45 867.2 319.45 867.2zM335.45 588.8l262.4 262.4c-73.6 60.8-179.2 57.6-252.8-12.8C281.05 771.2 274.65 662.4 335.45 588.8L335.45 588.8 335.45 588.8zM485.85 1024c179.2 0 329.6-147.2 329.6-329.6 0-44.8-16-99.2-32-137.6l336-361.6 3.2-99.2L1103.45 0 956.25 0l-80 83.2 9.6 41.6L844.25 124.8l-60.8 60.8 3.2 32-32 0L591.45 387.2c-32-12.8-67.2-16-105.6-16C306.65 371.2 156.25 518.4 156.25 700.8S303.45 1024 485.85 1024L485.85 1024 485.85 1024zM764.25 252.8l51.2-3.2 0-54.4 38.4-41.6 64 0-6.4-64 60.8-64 105.6 0 12.8 57.6c-112 115.2-204.8 214.4-320 329.6-16 16-3.2 44.8 12.8 25.6 105.6-105.6 217.6-220.8 310.4-313.6l-6.4 57.6L761.05 528c-32-60.8-83.2-99.2-144-131.2L764.25 252.8 764.25 252.8 764.25 252.8zM485.85 406.4c160 0 288 128 288 288s-128 288-288 288-288-128-288-284.8S322.65 406.4 485.85 406.4L485.85 406.4 485.85 406.4z" /></svg>