<?xml version="1.0" standalone="no"?><!DOCTYPE svg PUBLIC "-//W3C//DTD SVG 1.1//EN" "http://www.w3.org/Graphics/SVG/1.1/DTD/svg11.dtd"><svg class="icon" width="200px" height="200.00px" viewBox="0 0 1024 1024" version="1.1" xmlns="http://www.w3.org/2000/svg"><path fill="#ffffff" d="M864.327235 923.986365c0-0.828104 0.169183-1.620591 0.169183-2.413078 0-161.391304-156.841183-292.240696-350.288139-292.240696s-350.252522 130.849391-350.252522 292.240696c0 0.792487 0.133565 1.593878 0.133565 2.413078l-73.728 0c-0.026713-0.828104-0.169183-1.620591-0.169183-2.413078 0-163.670817 131.615165-301.189565 310.708313-342.89753-85.268035-39.1168-144.775791-124.055374-144.775791-223.276522 0-136.156383 111.429009-246.51687 248.876522-246.51687 137.456417 0 248.876522 110.360487 248.876522 246.51687 0 97.101913-57.148104 180.250713-139.4688 220.462748 185.717983 37.861287 323.833322 178.060243 323.833322 345.711304 0 0.792487-0.133565 1.593878-0.133565 2.413078L864.327235 923.986365zM698.5728 355.39033c0-105.890504-86.657113-191.75513-193.580522-191.75513-106.914504 0-193.571617 85.864626-193.571617 191.75513 0 105.926122 86.657113 191.790748 193.571617 191.790748C611.906783 547.181078 698.5728 461.316452 698.5728 355.39033z" /></svg>