<?xml version="1.0" standalone="no"?><!DOCTYPE svg PUBLIC "-//W3C//DTD SVG 1.1//EN" "http://www.w3.org/Graphics/SVG/1.1/DTD/svg11.dtd"><svg class="icon" width="200px" height="200.00px" viewBox="0 0 1024 1024" version="1.1" xmlns="http://www.w3.org/2000/svg"><path fill="#ffffff" d="M834.8 782.9c7.3 4.7 10.7 11.8 10.1 21.5-0.5 9.6-4.9 17.8-13.3 24.6l-74.1 74.1c-6.8 6.8-14.3 10.1-22.6 10.1s-16.1-3.4-23.4-10.1L415.8 607.4c-38 14.6-76.7 17.9-116.2 10.1-41.1-8.3-77-27.8-107.7-58.5-21.3-21.3-37.4-45.9-48.4-73.7-10.9-27.8-16-56.2-15.2-85 0.8-28.9 7.7-56.3 20.7-82.3l143.6 140.4 97.5-97.5-140.4-140.5c26-12 53.6-18.3 82.7-19.1 29.1-0.8 57.2 3.8 84.3 13.7 28.1 10.9 52.8 27 74.1 48.4 30.7 30.7 50.2 66.2 58.5 106.5s4.9 79.4-10.1 117.4l295.6 295.6z" /></svg>