<?xml version="1.0" standalone="no"?><!DOCTYPE svg PUBLIC "-//W3C//DTD SVG 1.1//EN" "http://www.w3.org/Graphics/SVG/1.1/DTD/svg11.dtd"><svg class="icon" width="200px" height="200.00px" viewBox="0 0 1024 1024" version="1.1" xmlns="http://www.w3.org/2000/svg"><path fill="#ffffff" d="M512 0C229.225813 0 0 229.225813 0 512s229.225813 512 512 512 512-229.225813 512-512S794.774187 0 512 0z m323.42016 835.42016a455.789227 455.789227 0 1 1 98.044587-145.408 455.92576 455.92576 0 0 1-98.044587 145.408z"  /><path fill="#ffffff" d="M604.07808 514.607787a144.30208 144.30208 0 1 0-184.15616 0 216.459947 216.459947 0 0 0-124.1088 195.570346 27.306667 27.306667 0 1 0 54.613333 0 161.573547 161.573547 0 0 1 323.147094 0 27.306667 27.306667 0 0 0 54.613333 0 216.459947 216.459947 0 0 0-124.1088-195.570346zM512 493.19936a89.688747 89.688747 0 1 1 89.688747-89.688747A89.797973 89.797973 0 0 1 512 493.19936z"  /></svg>