<?xml version="1.0" standalone="no"?><!DOCTYPE svg PUBLIC "-//W3C//DTD SVG 1.1//EN" "http://www.w3.org/Graphics/SVG/1.1/DTD/svg11.dtd"><svg class="icon" width="200px" height="200.00px" viewBox="0 0 1024 1024" version="1.1" xmlns="http://www.w3.org/2000/svg"><path fill="#ffffff" d="M540 160.864c14.816 0 27.008 12.192 27.008 27.04v32.416c0 14.88 11.648 30.656 25.792 35.04l45.152 18.592c4.864 2.592 10.592 3.84 16.384 3.84 9.856 0 19.936-3.584 26.528-10.176l22.976-22.976a27.008 27.008 0 0 1 38.208 0l38.208 38.176a27.104 27.104 0 0 1 0 38.24l-22.976 22.976c-10.464 10.528-13.344 29.824-6.304 42.912l18.592 45.216c4.416 14.176 20.16 25.792 35.008 25.792h32.416c14.816 0 26.976 12.128 26.976 27.008v54.048a27.04 27.04 0 0 1-26.976 27.008h-32.416c-14.784 0-30.592 11.616-35.008 25.76l-18.592 45.216c-7.04 13.12-4.128 32.48 6.304 42.944l22.976 22.944a27.104 27.104 0 0 1 0 38.24l-38.208 38.208c-5.248 5.248-12.192 7.872-19.104 7.872s-13.856-2.624-19.104-7.872l-22.88-23.008c-6.592-6.56-16.672-10.144-26.496-10.144a34.56 34.56 0 0 0-16.448 3.904l-45.248 18.592c-14.144 4.416-25.792 20.16-25.792 35.04v32.32a27.136 27.136 0 0 1-27.008 27.008h-53.984a27.072 27.072 0 0 1-27.04-27.008v-32.32c0-14.88-11.584-30.624-25.76-35.04l-45.312-18.592a34.688 34.688 0 0 0-16.384-3.904c-9.792 0-19.84 3.584-26.4 10.144l-23.008 23.008c-5.248 5.248-12.16 7.872-19.072 7.872s-13.824-2.624-19.072-7.872L245.696 741.12a27.2 27.2 0 0 1 0-38.24l23.008-22.944c10.496-10.464 13.344-29.824 6.336-42.944l-18.656-45.216c-4.384-14.176-20.096-25.76-34.944-25.792H189.056a27.136 27.136 0 0 1-27.008-27.04v-54.016c0-14.88 12.16-27.008 27.008-27.008l32.384 0.032c14.88 0 30.624-11.616 35.008-25.792l18.592-45.248c7.04-13.088 4.192-32.384-6.336-42.912l-22.944-22.976a27.072 27.072 0 0 1 0-38.208l38.176-38.176c5.248-5.248 12.16-7.872 19.072-7.872s13.824 2.624 19.072 7.872l23.04 22.976c6.592 6.624 16.64 10.208 26.464 10.208 5.792 0 11.52-1.248 16.384-3.872l45.216-18.592c14.176-4.384 25.76-20.16 25.76-35.04V187.904c0-14.816 12.16-27.04 27.04-27.04h53.984z m-26.944 505.504a154.336 154.336 0 0 0 154.336-154.4 154.368 154.368 0 1 0-154.336 154.4z m26.304-565.92h-52.736a95.136 95.136 0 0 0-95.04 95.008v9.568l-9.824 4.032-6.816-6.784c-17.856-17.856-41.696-27.712-67.072-27.712s-49.248 9.888-67.168 27.84L203.456 239.68c-17.92 17.888-27.808 41.76-27.808 67.168s9.888 49.248 27.808 67.168l6.688 6.72-4.064 9.92h-9.44a95.136 95.136 0 0 0-95.072 95.008v52.736a95.136 95.136 0 0 0 95.008 95.04h9.472l4.096 9.92-6.688 6.688a95.456 95.456 0 0 0-0.224 134.24l37.536 37.536c17.856 17.888 41.728 27.776 67.136 27.776s49.216-9.856 67.136-27.744l6.688-6.688 9.888 4.064v9.472a95.104 95.104 0 0 0 95.04 94.976h52.736a95.072 95.072 0 0 0 94.976-94.976v-9.472l9.92-4.064 6.496 6.528a94.624 94.624 0 0 0 67.328 27.904 94.4 94.4 0 0 0 67.136-27.744l37.344-37.376c17.92-17.92 27.808-41.792 27.808-67.2s-9.888-49.28-27.84-67.2l-6.688-6.688 4.064-9.888h9.536a95.072 95.072 0 0 0 94.944-94.976v-52.8a95.072 95.072 0 0 0-94.944-95.008h-9.536l-4.064-9.888 6.688-6.656c17.984-17.984 27.872-41.888 27.84-67.296s-9.92-49.28-27.872-67.168l-37.28-37.248c-17.92-17.92-41.76-27.776-67.136-27.776s-49.184 9.824-67.104 27.712l-6.784 6.784-9.824-4.064v-9.568a95.104 95.104 0 0 0-94.976-95.008m-26.368 503.232c-50.624 0-91.776-41.184-91.776-91.808s41.184-91.84 91.776-91.84 91.776 41.184 91.776 91.84-41.152 91.808-91.776 91.808"  /></svg>