<?xml version="1.0" standalone="no"?><!DOCTYPE svg PUBLIC "-//W3C//DTD SVG 1.1//EN" "http://www.w3.org/Graphics/SVG/1.1/DTD/svg11.dtd"><svg class="icon" width="200px" height="200.00px" viewBox="0 0 1024 1024" version="1.1" xmlns="http://www.w3.org/2000/svg"><path fill="#ffffff" d="M511.093 1000.818c-269.264 0-488.429-219.166-488.429-488.429 0-269.393 219.036-488.429 488.429-488.429 269.393 0 488.558 219.166 488.558 488.429s-219.166 488.429-488.558 488.429zM511.093 75.223c-240.914 0-437.037 195.993-437.037 437.037s195.993 437.037 437.037 437.037c241.043 0 437.165-196.123 437.165-437.037-0.13-240.914-196.123-437.037-437.165-437.037z"  /><path fill="#ffffff" d="M511.093 409.343c-56.831 0-102.915 46.085-102.915 102.915s46.085 102.915 102.915 102.915 102.915-46.085 102.915-102.915-46.085-102.915-102.915-102.915zM511.093 550.19c-20.972 0-37.93-16.959-37.93-37.93s16.959-37.93 37.93-37.93c20.972 0 37.93 16.959 37.93 37.93-0.13 20.972-17.088 37.93-37.93 37.93z"  /><path fill="#ffffff" d="M768.706 454.394h-50.876c-4.66-16.57-11.263-32.493-19.677-47.51l35.859-35.859c3.237-3.107 4.918-7.508 4.918-11.909 0-4.53-1.812-8.803-4.918-11.909l-57.867-57.867c-3.237-3.237-7.638-4.918-11.909-4.918-4.402 0-8.673 1.683-11.909 4.918l-35.859 35.859c-15.017-8.414-30.94-15.017-47.51-19.677v-50.876c0-9.191-7.638-16.829-16.829-16.829h-81.943c-9.191 0-16.829 7.638-16.829 16.829v50.876c-16.57 4.66-32.493 11.133-47.51 19.677l-35.988-35.859c-3.237-3.237-7.638-4.918-11.909-4.918s-8.673 1.683-11.909 4.918l-57.867 57.867c-6.473 6.603-6.473 17.218 0 23.82l35.859 35.859c-8.414 15.017-15.017 30.94-19.677 47.51h-50.876c-9.191 0-16.829 7.638-16.829 16.829v81.943c0 9.191 7.638 16.829 16.829 16.829h50.876c4.66 16.57 11.133 32.493 19.677 47.51l-35.859 35.859c-6.473 6.603-6.473 17.218 0 23.949l57.867 57.867c3.237 3.237 7.638 4.918 11.909 4.918s8.673-1.683 11.909-4.918l35.859-35.859c15.017 8.414 30.94 15.017 47.51 19.677v50.876c0 9.191 7.638 16.829 16.829 16.829h82.074c9.191 0 16.829-7.638 16.829-16.829v-50.746c16.57-4.66 32.493-11.133 47.51-19.677l35.859 35.859c3.237 3.237 7.638 4.918 11.909 4.918 4.402 0 8.673-1.683 11.909-4.918l57.867-57.867c3.237-3.107 4.918-7.508 4.918-11.909 0-4.53-1.812-8.803-4.918-11.909l-35.859-35.859c8.414-15.017 15.017-30.94 19.677-47.51h50.876c9.191 0 16.829-7.638 16.829-16.829v-81.943c0-9.451-7.638-17.088-16.829-17.088zM655.175 552.519c-3.237 11.651-7.767 22.914-13.593 33.14l-20.583 36.506-36.506 20.714c-10.485 5.825-21.619 10.485-33.14 13.593l-40.39 11.263-40.39-11.263c-11.651-3.237-22.914-7.767-33.14-13.593l-36.506-20.583-20.583-36.506c-5.825-10.227-10.356-21.36-13.593-33.14l-11.133-40.39 11.263-40.39c3.237-11.651 7.767-22.914 13.593-33.14l20.583-36.506 36.506-20.583c10.485-5.825 21.619-10.485 33.14-13.593l40.39-11.263 40.39 11.263c11.651 3.237 22.914 7.767 33.14 13.593l36.506 20.583 20.583 36.506c5.825 10.485 10.485 21.619 13.593 33.14l11.263 40.39-11.393 40.26z"  /></svg>